<?xml version="1.0" encoding="iso-8859-1"?>
<!-- Generator: Adobe Illustrator 16.0.0, SVG Export Plug-In . SVG Version: 6.00 Build 0)  -->
<!DOCTYPE svg PUBLIC "-//W3C//DTD SVG 1.1//EN" "http://www.w3.org/Graphics/SVG/1.1/DTD/svg11.dtd">
<svg version="1.1" id="Capa_1" xmlns="http://www.w3.org/2000/svg" xmlns:xlink="http://www.w3.org/1999/xlink" x="0px" y="0px"
	 width="56.48px" height="56.48px" viewBox="0 0 56.48 56.48" style="enable-background:new 0 0 56.48 56.48;" xml:space="preserve"
	>
<g>
	<path d="M55.026,9.939H1.454C0.65,9.939,0,10.59,0,11.393v33.695c0,0.803,0.65,1.454,1.454,1.454h53.572
		c0.804,0,1.454-0.651,1.454-1.454V11.393C56.48,10.59,55.83,9.939,55.026,9.939z M9.677,34.706
		c-2.107-1.696-3.341-3.788-3.312-6.032c0.07-5.551,7.854-9.949,17.383-9.824c5.969,0.083,11.206,1.918,14.266,4.645
		c-3.092-2.177-7.655-3.59-12.78-3.655c-9.394-0.126-17.069,4.312-17.144,9.91C8.07,31.445,8.64,33.14,9.677,34.706z M16.211,33.63
		c0.59,0.308,1.322,0.465,2.179,0.465c0.665,0,1.468-0.205,2.405-0.611c0.94-0.406,1.539-0.61,1.801-0.61
		c0.474,0,0.878,0.163,1.209,0.487c0.332,0.326,0.502,0.717,0.502,1.173c0,1.043-0.841,1.858-2.524,2.442
		c-1.28,0.441-2.589,0.658-3.92,0.658c-2.136,0-3.864-0.658-5.187-1.977c-1.326-1.318-1.986-2.979-1.986-4.982
		c0-1.908,0.688-3.537,2.064-4.894c1.375-1.364,3.079-2.042,5.108-2.042c1.897,0,3.475,0.644,4.747,1.927
		c1.271,1.287,1.905,2.818,1.905,4.591c0,0.637-0.161,1.076-0.485,1.321c-0.324,0.244-0.829,0.369-1.511,0.369h-7.411
		C15.107,32.679,15.471,33.241,16.211,33.63z M34.846,37.027c-0.965,0.404-1.981,0.607-3.051,0.607c-2.07,0-3.751-0.69-5.045-2.074
		c-1.244-1.321-1.866-2.947-1.866-4.885c0-1.938,0.632-3.579,1.906-4.922c1.27-1.34,2.935-2.013,5.005-2.013
		c1.191,0,2.219,0.163,3.075,0.489c1.193,0.437,1.787,1.123,1.787,2.05c0,0.474-0.155,0.889-0.472,1.246
		c-0.312,0.357-0.719,0.54-1.204,0.54c-0.334,0-0.812-0.104-1.441-0.309c-0.628-0.201-1.126-0.304-1.493-0.304
		c-0.979,0-1.736,0.322-2.279,0.967c-0.506,0.585-0.76,1.335-0.76,2.257c0,0.871,0.229,1.608,0.682,2.207
		c0.508,0.694,1.212,1.041,2.121,1.041c0.404,0,0.951-0.107,1.648-0.33c0.699-0.219,1.209-0.33,1.522-0.33
		c0.45,0,0.846,0.182,1.177,0.539c0.334,0.359,0.499,0.75,0.499,1.17C36.658,35.835,36.053,36.521,34.846,37.027z M48.25,35.56
		c-1.299,1.384-2.98,2.074-5.049,2.074s-3.75-0.69-5.045-2.074c-1.243-1.321-1.865-2.947-1.865-4.885
		c0-1.938,0.622-3.564,1.865-4.886c1.312-1.369,2.995-2.05,5.045-2.05c2.066,0,3.75,0.681,5.049,2.05
		c1.241,1.32,1.866,2.946,1.866,4.886C50.116,32.614,49.491,34.239,48.25,35.56z M45.312,28.468
		c0.449,0.598,0.676,1.336,0.676,2.207c0,0.869-0.227,1.615-0.676,2.229c-0.506,0.684-1.209,1.02-2.111,1.02
		c-0.9,0-1.604-0.336-2.107-1.02c-0.451-0.613-0.676-1.359-0.676-2.229c0-0.871,0.225-1.609,0.676-2.207
		c0.504-0.679,1.207-1.018,2.107-1.018C44.104,27.451,44.807,27.789,45.312,28.468z M19.527,27.724
		c0.553,0.476,0.844,1.002,0.86,1.583h-5.28c0-0.578,0.277-1.106,0.836-1.583c0.557-0.477,1.157-0.712,1.802-0.712
		C18.376,27.012,18.966,27.247,19.527,27.724z"/>
</g>
<g>
</g>
<g>
</g>
<g>
</g>
<g>
</g>
<g>
</g>
<g>
</g>
<g>
</g>
<g>
</g>
<g>
</g>
<g>
</g>
<g>
</g>
<g>
</g>
<g>
</g>
<g>
</g>
<g>
</g>
</svg>
